%TF.GenerationSoftware,KiCad,Pcbnew,10.0.5*%
%TF.CreationDate,2026-08-24T11:06:52+02:00*%
%TF.ProjectId,connecter_board,636f6e6e-6563-4746-9572-5f626f617264,rev?*%
%TF.SameCoordinates,Original*%
%TF.FileFunction,Copper,L4,Bot*%
%TF.FilePolarity,Positive*%
%FSLAX46Y46*%
G04 Gerber Fmt 4.6, Leading zero omitted, Abs format (unit mm)*
G04 Created by KiCad (PCBNEW 10.0.5) date 2026-08-24 11:06:52*
%MOMM*%
%LPD*%
G01*
G04 APERTURE LIST*
%TA.AperFunction,ComponentPad*%
%ADD10R,1.217000X1.217000*%
%TD*%
%TA.AperFunction,ComponentPad*%
%ADD11C,1.217000*%
%TD*%
%TA.AperFunction,ComponentPad*%
%ADD12C,3.960000*%
%TD*%
%TA.AperFunction,ViaPad*%
%ADD13C,0.700000*%
%TD*%
%TA.AperFunction,ViaPad*%
%ADD14C,0.600000*%
%TD*%
G04 APERTURE END LIST*
D10*
%TO.P,J2,1,1_1*%
%TO.N,/DATA_IN_P*%
X88500000Y-69660000D03*
D11*
%TO.P,J2,2,2_2*%
%TO.N,/STROBE_IN_P*%
X88500000Y-67120000D03*
%TO.P,J2,3,3_3*%
%TO.N,GND*%
X88500000Y-64580000D03*
%TO.P,J2,4,4_4*%
%TO.N,/STROBE_OUT_N*%
X88500000Y-62040000D03*
%TO.P,J2,5,5_5*%
%TO.N,/DATA_OUT_N*%
X88500000Y-59500000D03*
%TO.P,J2,6,6_6*%
%TO.N,/DATA_IN_N*%
X85960000Y-68390000D03*
%TO.P,J2,7,7_7*%
%TO.N,/STROBE_IN_N*%
X85960000Y-65850000D03*
%TO.P,J2,8,8_8*%
%TO.N,/STROBE_OUT_P*%
X85960000Y-63310000D03*
%TO.P,J2,9,9_9*%
%TO.N,/DATA_OUT_P*%
X85960000Y-60770000D03*
D12*
%TO.P,J2,10,MH_1_10*%
%TO.N,unconnected-(J2-MH_1-Pad10)*%
X87230000Y-79190000D03*
%TO.P,J2,11,MH_2_11*%
%TO.N,unconnected-(J2-MH_2-Pad11)*%
X87230000Y-49970000D03*
%TD*%
D13*
%TO.N,+3.3V*%
X52000000Y-72175000D03*
X71500000Y-65675000D03*
X75289000Y-59663412D03*
D14*
%TO.N,GND*%
X67500000Y-69175000D03*
X70500000Y-57500000D03*
X52500000Y-62500000D03*
X72000000Y-74675000D03*
X52500000Y-55000000D03*
X79500000Y-74675000D03*
X90918693Y-65913834D03*
X85835386Y-57547927D03*
X65273714Y-67448714D03*
X59187614Y-66109223D03*
X62665528Y-77168207D03*
X67511161Y-78653159D03*
X90996848Y-62983008D03*
X78023057Y-57277666D03*
X87000000Y-74675000D03*
X91086226Y-57781298D03*
X80000000Y-66175000D03*
X60000000Y-55000000D03*
X52000000Y-70000000D03*
X56000000Y-75000000D03*
X74154367Y-65835679D03*
X69000000Y-67675000D03*
X66500000Y-57500000D03*
D13*
%TO.N,+1V8*%
X65500000Y-65675000D03*
X65500000Y-73327310D03*
%TD*%
%TA.AperFunction,Conductor*%
%TO.N,GND*%
G36*
X91679790Y-31920185D02*
G01*
X91711950Y-31950099D01*
X96525759Y-38368512D01*
X96574700Y-38433766D01*
X96599176Y-38499208D01*
X96599500Y-38508166D01*
X96599500Y-85711117D01*
X96579815Y-85778156D01*
X96568917Y-85792660D01*
X92257328Y-90732047D01*
X92198412Y-90769608D01*
X92163914Y-90774504D01*
X66555043Y-90775029D01*
X66488003Y-90755346D01*
X66479086Y-90749044D01*
X61485108Y-86878711D01*
X68149500Y-86878711D01*
X68149500Y-87121288D01*
X68181161Y-87361785D01*
X68243947Y-87596104D01*
X68336773Y-87820205D01*
X68336776Y-87820212D01*
X68458064Y-88030289D01*
X68458066Y-88030292D01*
X68458067Y-88030293D01*
X68605733Y-88222736D01*
X68605739Y-88222743D01*
X68777256Y-88394260D01*
X68777262Y-88394265D01*
X68969711Y-88541936D01*
X69179788Y-88663224D01*
X69403900Y-88756054D01*
X69638211Y-88818838D01*
X69818586Y-88842584D01*
X69878711Y-88850500D01*
X69878712Y-88850500D01*
X70121289Y-88850500D01*
X70169388Y-88844167D01*
X70361789Y-88818838D01*
X70596100Y-88756054D01*
X70820212Y-88663224D01*
X71030289Y-88541936D01*
X71222738Y-88394265D01*
X71394265Y-88222738D01*
X71541936Y-88030289D01*
X71663224Y-87820212D01*
X71756054Y-87596100D01*
X71818838Y-87361789D01*
X71850500Y-87121288D01*
X71850500Y-86878712D01*
X71850500Y-86878711D01*
X88149500Y-86878711D01*
X88149500Y-87121288D01*
X88181161Y-87361785D01*
X88243947Y-87596104D01*
X88336773Y-87820205D01*
X88336776Y-87820212D01*
X88458064Y-88030289D01*
X88458066Y-88030292D01*
X88458067Y-88030293D01*
X88605733Y-88222736D01*
X88605739Y-88222743D01*
X88777256Y-88394260D01*
X88777262Y-88394265D01*
X88969711Y-88541936D01*
X89179788Y-88663224D01*
X89403900Y-88756054D01*
X89638211Y-88818838D01*
X89818586Y-88842584D01*
X89878711Y-88850500D01*
X89878712Y-88850500D01*
X90121289Y-88850500D01*
X90169388Y-88844167D01*
X90361789Y-88818838D01*
X90596100Y-88756054D01*
X90820212Y-88663224D01*
X91030289Y-88541936D01*
X91222738Y-88394265D01*
X91394265Y-88222738D01*
X91541936Y-88030289D01*
X91663224Y-87820212D01*
X91756054Y-87596100D01*
X91818838Y-87361789D01*
X91850500Y-87121288D01*
X91850500Y-86878712D01*
X91818838Y-86638211D01*
X91756054Y-86403900D01*
X91663224Y-86179788D01*
X91541936Y-85969711D01*
X91394265Y-85777262D01*
X91394260Y-85777256D01*
X91222743Y-85605739D01*
X91222736Y-85605733D01*
X91030293Y-85458067D01*
X91030292Y-85458066D01*
X91030289Y-85458064D01*
X90820212Y-85336776D01*
X90820205Y-85336773D01*
X90596104Y-85243947D01*
X90361785Y-85181161D01*
X90121289Y-85149500D01*
X90121288Y-85149500D01*
X89878712Y-85149500D01*
X89878711Y-85149500D01*
X89638214Y-85181161D01*
X89403895Y-85243947D01*
X89179794Y-85336773D01*
X89179785Y-85336777D01*
X88969706Y-85458067D01*
X88777263Y-85605733D01*
X88777256Y-85605739D01*
X88605739Y-85777256D01*
X88605733Y-85777263D01*
X88458067Y-85969706D01*
X88336777Y-86179785D01*
X88336773Y-86179794D01*
X88243947Y-86403895D01*
X88181161Y-86638214D01*
X88149500Y-86878711D01*
X71850500Y-86878711D01*
X71818838Y-86638211D01*
X71756054Y-86403900D01*
X71663224Y-86179788D01*
X71541936Y-85969711D01*
X71394265Y-85777262D01*
X71394260Y-85777256D01*
X71222743Y-85605739D01*
X71222736Y-85605733D01*
X71030293Y-85458067D01*
X71030292Y-85458066D01*
X71030289Y-85458064D01*
X70820212Y-85336776D01*
X70820205Y-85336773D01*
X70596104Y-85243947D01*
X70361785Y-85181161D01*
X70121289Y-85149500D01*
X70121288Y-85149500D01*
X69878712Y-85149500D01*
X69878711Y-85149500D01*
X69638214Y-85181161D01*
X69403895Y-85243947D01*
X69179794Y-85336773D01*
X69179785Y-85336777D01*
X68969706Y-85458067D01*
X68777263Y-85605733D01*
X68777256Y-85605739D01*
X68605739Y-85777256D01*
X68605733Y-85777263D01*
X68458067Y-85969706D01*
X68336777Y-86179785D01*
X68336773Y-86179794D01*
X68243947Y-86403895D01*
X68181161Y-86638214D01*
X68149500Y-86878711D01*
X61485108Y-86878711D01*
X51555032Y-79182902D01*
X55534500Y-79182902D01*
X55534500Y-79419097D01*
X55571446Y-79652368D01*
X55644433Y-79876996D01*
X55751657Y-80087433D01*
X55890483Y-80278510D01*
X56057490Y-80445517D01*
X56248567Y-80584343D01*
X56333570Y-80627654D01*
X56459003Y-80691566D01*
X56459005Y-80691566D01*
X56459008Y-80691568D01*
X56579412Y-80730689D01*
X56683631Y-80764553D01*
X56916903Y-80801500D01*
X56916908Y-80801500D01*
X57153097Y-80801500D01*
X57386368Y-80764553D01*
X57610992Y-80691568D01*
X57821433Y-80584343D01*
X58012510Y-80445517D01*
X58179517Y-80278510D01*
X58318343Y-80087433D01*
X58425568Y-79876992D01*
X58498553Y-79652368D01*
X58505875Y-79606141D01*
X58535500Y-79419097D01*
X58535500Y-79182902D01*
X58517082Y-79066617D01*
X58514560Y-79050693D01*
X84749500Y-79050693D01*
X84749500Y-79329306D01*
X84780692Y-79606141D01*
X84780694Y-79606153D01*
X84842689Y-79877775D01*
X84842692Y-79877783D01*
X84934707Y-80140745D01*
X85055586Y-80391752D01*
X85055588Y-80391755D01*
X85203814Y-80627656D01*
X85377521Y-80845477D01*
X85574523Y-81042479D01*
X85792344Y-81216186D01*
X86028245Y-81364412D01*
X86279258Y-81485294D01*
X86476756Y-81554401D01*
X86542216Y-81577307D01*
X86542224Y-81577310D01*
X86542227Y-81577310D01*
X86542228Y-81577311D01*
X86813846Y-81639306D01*
X87090694Y-81670499D01*
X87090695Y-81670500D01*
X87090698Y-81670500D01*
X87369305Y-81670500D01*
X87369305Y-81670499D01*
X87646154Y-81639306D01*
X87917772Y-81577311D01*
X88180742Y-81485294D01*
X88431755Y-81364412D01*
X88667656Y-81216186D01*
X88885477Y-81042479D01*
X89082479Y-80845477D01*
X89256186Y-80627656D01*
X89404412Y-80391755D01*
X89525294Y-80140742D01*
X89617311Y-79877772D01*
X89679306Y-79606154D01*
X89710500Y-79329302D01*
X89710500Y-79050698D01*
X89679306Y-78773846D01*
X89617311Y-78502228D01*
X89525294Y-78239258D01*
X89404412Y-77988245D01*
X89256186Y-77752344D01*
X89082479Y-77534523D01*
X88885477Y-77337521D01*
X88667656Y-77163814D01*
X88431755Y-77015588D01*
X88431752Y-77015586D01*
X88180745Y-76894707D01*
X87917783Y-76802692D01*
X87917775Y-76802689D01*
X87714058Y-76756192D01*
X87646154Y-76740694D01*
X87646150Y-76740693D01*
X87646141Y-76740692D01*
X87369306Y-76709500D01*
X87369302Y-76709500D01*
X87090698Y-76709500D01*
X87090693Y-76709500D01*
X86813858Y-76740692D01*
X86813846Y-76740694D01*
X86542224Y-76802689D01*
X86542216Y-76802692D01*
X86279254Y-76894707D01*
X86028247Y-77015586D01*
X85792345Y-77163813D01*
X85574523Y-77337520D01*
X85377520Y-77534523D01*
X85203813Y-77752345D01*
X85055586Y-77988247D01*
X84934707Y-78239254D01*
X84842692Y-78502216D01*
X84842689Y-78502224D01*
X84780694Y-78773846D01*
X84780692Y-78773858D01*
X84749500Y-79050693D01*
X58514560Y-79050693D01*
X58498553Y-78949631D01*
X58449988Y-78800166D01*
X58425568Y-78725008D01*
X58425566Y-78725005D01*
X58425566Y-78725003D01*
X58318342Y-78514566D01*
X58273227Y-78452471D01*
X58179517Y-78323490D01*
X58012510Y-78156483D01*
X57821433Y-78017657D01*
X57763709Y-77988245D01*
X57610996Y-77910433D01*
X57386368Y-77837446D01*
X57153097Y-77800500D01*
X57153092Y-77800500D01*
X56916908Y-77800500D01*
X56916903Y-77800500D01*
X56683631Y-77837446D01*
X56459003Y-77910433D01*
X56248566Y-78017657D01*
X56139550Y-78096862D01*
X56057490Y-78156483D01*
X56057488Y-78156485D01*
X56057487Y-78156485D01*
X55890485Y-78323487D01*
X55890485Y-78323488D01*
X55890483Y-78323490D01*
X55830862Y-78405550D01*
X55751657Y-78514566D01*
X55644433Y-78725003D01*
X55571446Y-78949631D01*
X55534500Y-79182902D01*
X51555032Y-79182902D01*
X50442479Y-78320673D01*
X50401549Y-78264049D01*
X50394439Y-78222650D01*
X50394864Y-75340092D01*
X59269500Y-75340092D01*
X59269500Y-75489907D01*
X59298723Y-75636822D01*
X59298725Y-75636830D01*
X59356051Y-75775229D01*
X59356056Y-75775238D01*
X59439280Y-75899790D01*
X59439283Y-75899794D01*
X59545205Y-76005716D01*
X59545209Y-76005719D01*
X59669761Y-76088943D01*
X59669767Y-76088946D01*
X59669768Y-76088947D01*
X59808170Y-76146275D01*
X59955092Y-76175499D01*
X59955096Y-76175500D01*
X59955097Y-76175500D01*
X60104904Y-76175500D01*
X60104905Y-76175499D01*
X60251830Y-76146275D01*
X60390232Y-76088947D01*
X60514791Y-76005719D01*
X60620719Y-75899791D01*
X60703947Y-75775232D01*
X60761275Y-75636830D01*
X60790500Y-75489903D01*
X60790500Y-75340097D01*
X60761275Y-75193170D01*
X60703947Y-75054768D01*
X60703946Y-75054767D01*
X60703943Y-75054761D01*
X60620719Y-74930209D01*
X60620716Y-74930205D01*
X60514794Y-74824283D01*
X60514790Y-74824280D01*
X60390238Y-74741056D01*
X60390229Y-74741051D01*
X60251830Y-74683725D01*
X60251822Y-74683723D01*
X60104907Y-74654500D01*
X60104903Y-74654500D01*
X59955097Y-74654500D01*
X59955092Y-74654500D01*
X59808177Y-74683723D01*
X59808169Y-74683725D01*
X59669770Y-74741051D01*
X59669761Y-74741056D01*
X59545209Y-74824280D01*
X59545205Y-74824283D01*
X59439283Y-74930205D01*
X59439280Y-74930209D01*
X59356056Y-75054761D01*
X59356051Y-75054770D01*
X59298725Y-75193169D01*
X59298723Y-75193177D01*
X59269500Y-75340092D01*
X50394864Y-75340092D01*
X50395174Y-73243538D01*
X64649500Y-73243538D01*
X64649500Y-73411081D01*
X64682182Y-73575384D01*
X64682184Y-73575392D01*
X64746295Y-73730170D01*
X64839373Y-73869472D01*
X64957837Y-73987936D01*
X65050494Y-74049847D01*
X65097137Y-74081013D01*
X65251918Y-74145126D01*
X65416228Y-74177809D01*
X65416232Y-74177810D01*
X65416233Y-74177810D01*
X65583768Y-74177810D01*
X65583769Y-74177809D01*
X65748082Y-74145126D01*
X65902863Y-74081013D01*
X66042162Y-73987936D01*
X66160626Y-73869472D01*
X66253703Y-73730173D01*
X66317816Y-73575392D01*
X66350500Y-73411077D01*
X66350500Y-73243543D01*
X66317816Y-73079228D01*
X66253703Y-72924447D01*
X66222537Y-72877804D01*
X66160626Y-72785147D01*
X66042162Y-72666683D01*
X65902860Y-72573605D01*
X65748082Y-72509494D01*
X65748074Y-72509492D01*
X65583771Y-72476810D01*
X65583767Y-72476810D01*
X65416233Y-72476810D01*
X65416228Y-72476810D01*
X65251925Y-72509492D01*
X65251917Y-72509494D01*
X65097139Y-72573605D01*
X64957837Y-72666683D01*
X64839373Y-72785147D01*
X64746295Y-72924449D01*
X64682184Y-73079227D01*
X64682182Y-73079235D01*
X64649500Y-73243538D01*
X50395174Y-73243538D01*
X50395344Y-72091228D01*
X51149500Y-72091228D01*
X51149500Y-72258771D01*
X51182182Y-72423074D01*
X51182184Y-72423082D01*
X51246295Y-72577860D01*
X51339373Y-72717162D01*
X51457837Y-72835626D01*
X51550494Y-72897537D01*
X51597137Y-72928703D01*
X51751918Y-72992816D01*
X51916228Y-73025499D01*
X51916232Y-73025500D01*
X51916233Y-73025500D01*
X52083768Y-73025500D01*
X52083769Y-73025499D01*
X52248082Y-72992816D01*
X52402863Y-72928703D01*
X52542162Y-72835626D01*
X52660626Y-72717162D01*
X52753703Y-72577863D01*
X52817816Y-72423082D01*
X52850500Y-72258767D01*
X52850500Y-72091233D01*
X52817816Y-71926918D01*
X52753703Y-71772137D01*
X52722537Y-71725494D01*
X52660626Y-71632837D01*
X52542162Y-71514373D01*
X52402860Y-71421295D01*
X52248082Y-71357184D01*
X52248074Y-71357182D01*
X52083771Y-71324500D01*
X52083767Y-71324500D01*
X51916233Y-71324500D01*
X51916228Y-71324500D01*
X51751925Y-71357182D01*
X51751917Y-71357184D01*
X51597139Y-71421295D01*
X51457837Y-71514373D01*
X51339373Y-71632837D01*
X51246295Y-71772139D01*
X51182184Y-71926917D01*
X51182182Y-71926925D01*
X51149500Y-72091228D01*
X50395344Y-72091228D01*
X50395903Y-68302720D01*
X84851000Y-68302720D01*
X84851000Y-68477280D01*
X84862677Y-68551001D01*
X84878308Y-68649692D01*
X84878308Y-68649695D01*
X84932249Y-68815706D01*
X84932249Y-68815707D01*
X84932250Y-68815708D01*
X85011498Y-68971243D01*
X85114102Y-69112465D01*
X85237535Y-69235898D01*
X85378757Y-69338502D01*
X85534292Y-69417750D01*
X85700309Y-69471692D01*
X85872720Y-69499000D01*
X85872721Y-69499000D01*
X86047279Y-69499000D01*
X86047280Y-69499000D01*
X86219691Y-69471692D01*
X86219694Y-69471691D01*
X86219695Y-69471691D01*
X86272089Y-69454666D01*
X86385708Y-69417750D01*
X86541243Y-69338502D01*
X86682465Y-69235898D01*
X86805898Y-69112465D01*
X86884968Y-69003635D01*
X87391000Y-69003635D01*
X87391000Y-70316370D01*
X87391001Y-70316376D01*
X87397408Y-70375983D01*
X87447702Y-70510828D01*
X87447706Y-70510835D01*
X87533952Y-70626044D01*
X87533955Y-70626047D01*
X87649164Y-70712293D01*
X87649171Y-70712297D01*
X87784017Y-70762591D01*
X87784016Y-70762591D01*
X87790944Y-70763335D01*
X87843627Y-70769000D01*
X89156372Y-70768999D01*
X89215983Y-70762591D01*
X89350831Y-70712296D01*
X89466046Y-70626046D01*
X89552296Y-70510831D01*
X89602591Y-70375983D01*
X89609000Y-70316373D01*
X89608999Y-69003628D01*
X89602591Y-68944017D01*
X89602588Y-68944010D01*
X89552297Y-68809171D01*
X89552293Y-68809164D01*
X89466047Y-68693955D01*
X89466044Y-68693952D01*
X89350835Y-68607706D01*
X89350828Y-68607702D01*
X89215982Y-68557408D01*
X89215983Y-68557408D01*
X89156383Y-68551001D01*
X89156381Y-68551000D01*
X89156373Y-68551000D01*
X89156364Y-68551000D01*
X87843629Y-68551000D01*
X87843623Y-68551001D01*
X87784016Y-68557408D01*
X87649171Y-68607702D01*
X87649164Y-68607706D01*
X87533955Y-68693952D01*
X87533952Y-68693955D01*
X87447706Y-68809164D01*
X87447702Y-68809171D01*
X87397408Y-68944017D01*
X87394481Y-68971247D01*
X87391001Y-69003623D01*
X87391000Y-69003635D01*
X86884968Y-69003635D01*
X86908502Y-68971243D01*
X86987750Y-68815708D01*
X87041692Y-68649691D01*
X87069000Y-68477280D01*
X87069000Y-68302720D01*
X87041692Y-68130309D01*
X87041691Y-68130305D01*
X87041691Y-68130304D01*
X86987750Y-67964293D01*
X86987750Y-67964292D01*
X86908502Y-67808757D01*
X86805898Y-67667535D01*
X86682465Y-67544102D01*
X86541243Y-67441498D01*
X86385708Y-67362250D01*
X86385707Y-67362249D01*
X86385706Y-67362249D01*
X86219693Y-67308308D01*
X86104750Y-67290102D01*
X86047280Y-67281000D01*
X85872720Y-67281000D01*
X85815249Y-67290102D01*
X85700307Y-67308308D01*
X85700304Y-67308308D01*
X85534293Y-67362249D01*
X85534292Y-67362249D01*
X85378760Y-67441496D01*
X85378752Y-67441501D01*
X85303006Y-67496534D01*
X85237535Y-67544102D01*
X85237533Y-67544104D01*
X85237532Y-67544104D01*
X85114104Y-67667532D01*
X85114104Y-67667533D01*
X85114102Y-67667535D01*
X85089615Y-67701239D01*
X85011501Y-67808752D01*
X85011496Y-67808760D01*
X84932249Y-67964292D01*
X84932249Y-67964293D01*
X84878308Y-68130304D01*
X84878308Y-68130307D01*
X84867002Y-68201691D01*
X84851000Y-68302720D01*
X50395903Y-68302720D01*
X50396090Y-67032720D01*
X87391000Y-67032720D01*
X87391000Y-67207280D01*
X87407002Y-67308308D01*
X87418308Y-67379692D01*
X87418308Y-67379695D01*
X87472249Y-67545706D01*
X87472249Y-67545707D01*
X87472250Y-67545708D01*
X87551498Y-67701243D01*
X87654102Y-67842465D01*
X87777535Y-67965898D01*
X87918757Y-68068502D01*
X88074292Y-68147750D01*
X88240309Y-68201692D01*
X88412720Y-68229000D01*
X88412721Y-68229000D01*
X88587279Y-68229000D01*
X88587280Y-68229000D01*
X88759691Y-68201692D01*
X88759694Y-68201691D01*
X88759695Y-68201691D01*
X88812089Y-68184666D01*
X88925708Y-68147750D01*
X89081243Y-68068502D01*
X89222465Y-67965898D01*
X89345898Y-67842465D01*
X89448502Y-67701243D01*
X89527750Y-67545708D01*
X89581692Y-67379691D01*
X89609000Y-67207280D01*
X89609000Y-67032720D01*
X89581692Y-66860309D01*
X89581691Y-66860305D01*
X89581691Y-66860304D01*
X89527750Y-66694293D01*
X89527750Y-66694292D01*
X89448502Y-66538757D01*
X89345898Y-66397535D01*
X89222465Y-66274102D01*
X89081243Y-66171498D01*
X88925708Y-66092250D01*
X88925707Y-66092249D01*
X88925706Y-66092249D01*
X88759693Y-66038308D01*
X88644750Y-66020102D01*
X88587280Y-66011000D01*
X88412720Y-66011000D01*
X88355249Y-66020102D01*
X88240307Y-66038308D01*
X88240304Y-66038308D01*
X88074293Y-66092249D01*
X88074292Y-66092249D01*
X87918760Y-66171496D01*
X87918752Y-66171501D01*
X87855906Y-66217162D01*
X87777535Y-66274102D01*
X87777533Y-66274104D01*
X87777532Y-66274104D01*
X87654104Y-66397532D01*
X87654104Y-66397533D01*
X87654102Y-66397535D01*
X87629615Y-66431239D01*
X87551501Y-66538752D01*
X87551496Y-66538760D01*
X87472249Y-66694292D01*
X87472249Y-66694293D01*
X87418308Y-66860304D01*
X87418308Y-66860307D01*
X87407002Y-66931691D01*
X87391000Y-67032720D01*
X50396090Y-67032720D01*
X50396303Y-65591228D01*
X64649500Y-65591228D01*
X64649500Y-65758771D01*
X64682182Y-65923074D01*
X64682184Y-65923082D01*
X64746295Y-66077860D01*
X64839373Y-66217162D01*
X64957837Y-66335626D01*
X65050486Y-66397532D01*
X65097137Y-66428703D01*
X65097138Y-66428703D01*
X65097139Y-66428704D01*
X65132201Y-66443227D01*
X65251918Y-66492816D01*
X65416228Y-66525499D01*
X65416232Y-66525500D01*
X65416233Y-66525500D01*
X65583768Y-66525500D01*
X65583769Y-66525499D01*
X65748082Y-66492816D01*
X65902863Y-66428703D01*
X66042162Y-66335626D01*
X66160626Y-66217162D01*
X66253703Y-66077863D01*
X66317816Y-65923082D01*
X66350500Y-65758767D01*
X66350500Y-65591233D01*
X66350499Y-65591228D01*
X70649500Y-65591228D01*
X70649500Y-65758771D01*
X70682182Y-65923074D01*
X70682184Y-65923082D01*
X70746295Y-66077860D01*
X70839373Y-66217162D01*
X70957837Y-66335626D01*
X71050486Y-66397532D01*
X71097137Y-66428703D01*
X71097138Y-66428703D01*
X71097139Y-66428704D01*
X71132201Y-66443227D01*
X71251918Y-66492816D01*
X71416228Y-66525499D01*
X71416232Y-66525500D01*
X71416233Y-66525500D01*
X71583768Y-66525500D01*
X71583769Y-66525499D01*
X71748082Y-66492816D01*
X71902863Y-66428703D01*
X72042162Y-66335626D01*
X72160626Y-66217162D01*
X72253703Y-66077863D01*
X72317816Y-65923082D01*
X72349714Y-65762720D01*
X84851000Y-65762720D01*
X84851000Y-65937280D01*
X84867002Y-66038308D01*
X84878308Y-66109692D01*
X84878308Y-66109695D01*
X84932249Y-66275706D01*
X84932249Y-66275707D01*
X84932250Y-66275708D01*
X85011498Y-66431243D01*
X85114102Y-66572465D01*
X85237535Y-66695898D01*
X85378757Y-66798502D01*
X85534292Y-66877750D01*
X85700309Y-66931692D01*
X85872720Y-66959000D01*
X85872721Y-66959000D01*
X86047279Y-66959000D01*
X86047280Y-66959000D01*
X86219691Y-66931692D01*
X86219694Y-66931691D01*
X86219695Y-66931691D01*
X86286709Y-66909917D01*
X86323851Y-66897848D01*
X86385708Y-66877750D01*
X86541243Y-66798502D01*
X86682465Y-66695898D01*
X86805898Y-66572465D01*
X86908502Y-66431243D01*
X86987750Y-66275708D01*
X87041692Y-66109691D01*
X87069000Y-65937280D01*
X87069000Y-65762720D01*
X87041692Y-65590309D01*
X87041691Y-65590305D01*
X87041691Y-65590304D01*
X87016715Y-65513435D01*
X86996211Y-65450335D01*
X86987750Y-65424292D01*
X86908502Y-65268757D01*
X86805898Y-65127535D01*
X86682465Y-65004102D01*
X86541243Y-64901498D01*
X86385708Y-64822250D01*
X86385707Y-64822249D01*
X86385706Y-64822249D01*
X86219693Y-64768308D01*
X86104750Y-64750102D01*
X86047280Y-64741000D01*
X85872720Y-64741000D01*
X85815249Y-64750102D01*
X85700307Y-64768308D01*
X85700304Y-64768308D01*
X85534293Y-64822249D01*
X85534292Y-64822249D01*
X85378760Y-64901496D01*
X85378752Y-64901501D01*
X85303006Y-64956534D01*
X85237535Y-65004102D01*
X85237533Y-65004104D01*
X85237532Y-65004104D01*
X85114104Y-65127532D01*
X85114104Y-65127533D01*
X85114102Y-65127535D01*
X85066534Y-65193006D01*
X85011501Y-65268752D01*
X85011496Y-65268760D01*
X84932249Y-65424292D01*
X84932249Y-65424293D01*
X84878308Y-65590304D01*
X84878308Y-65590307D01*
X84867079Y-65661204D01*
X84851000Y-65762720D01*
X72349714Y-65762720D01*
X72350500Y-65758767D01*
X72350500Y-65591233D01*
X72317816Y-65426918D01*
X72253703Y-65272137D01*
X72179429Y-65160978D01*
X72160626Y-65132837D01*
X72042162Y-65014373D01*
X71902860Y-64921295D01*
X71748082Y-64857184D01*
X71748074Y-64857182D01*
X71583771Y-64824500D01*
X71583767Y-64824500D01*
X71416233Y-64824500D01*
X71416228Y-64824500D01*
X71251925Y-64857182D01*
X71251917Y-64857184D01*
X71097139Y-64921295D01*
X70957837Y-65014373D01*
X70839373Y-65132837D01*
X70746295Y-65272139D01*
X70682184Y-65426917D01*
X70682182Y-65426925D01*
X70649500Y-65591228D01*
X66350499Y-65591228D01*
X66317816Y-65426918D01*
X66253703Y-65272137D01*
X66179429Y-65160978D01*
X66160626Y-65132837D01*
X66042162Y-65014373D01*
X65902860Y-64921295D01*
X65748082Y-64857184D01*
X65748074Y-64857182D01*
X65583771Y-64824500D01*
X65583767Y-64824500D01*
X65416233Y-64824500D01*
X65416228Y-64824500D01*
X65251925Y-64857182D01*
X65251917Y-64857184D01*
X65097139Y-64921295D01*
X64957837Y-65014373D01*
X64839373Y-65132837D01*
X64746295Y-65272139D01*
X64682184Y-65426917D01*
X64682182Y-65426925D01*
X64649500Y-65591228D01*
X50396303Y-65591228D01*
X50396465Y-64492759D01*
X87391500Y-64492759D01*
X87391500Y-64667240D01*
X87418795Y-64839575D01*
X87472710Y-65005513D01*
X87472713Y-65005521D01*
X87551925Y-65160980D01*
X87557623Y-65168822D01*
X88145000Y-64581445D01*
X88145000Y-64626737D01*
X88169193Y-64717025D01*
X88215930Y-64797975D01*
X88282025Y-64864070D01*
X88362975Y-64910807D01*
X88453263Y-64935000D01*
X88498553Y-64935000D01*
X87911176Y-65522375D01*
X87911176Y-65522376D01*
X87919019Y-65528073D01*
X88074478Y-65607286D01*
X88074486Y-65607289D01*
X88240424Y-65661204D01*
X88412760Y-65688500D01*
X88587240Y-65688500D01*
X88759575Y-65661204D01*
X88925513Y-65607289D01*
X88925521Y-65607286D01*
X89080978Y-65528074D01*
X89080990Y-65528067D01*
X89088822Y-65522376D01*
X89088823Y-65522375D01*
X88501448Y-64935000D01*
X88546737Y-64935000D01*
X88637025Y-64910807D01*
X88717975Y-64864070D01*
X88784070Y-64797975D01*
X88830807Y-64717025D01*
X88855000Y-64626737D01*
X88855000Y-64581447D01*
X89442375Y-65168823D01*
X89442376Y-65168822D01*
X89448067Y-65160990D01*
X89448074Y-65160978D01*
X89527286Y-65005521D01*
X89527289Y-65005513D01*
X89581204Y-64839575D01*
X89608500Y-64667240D01*
X89608500Y-64492759D01*
X89581204Y-64320424D01*
X89527289Y-64154486D01*
X89527286Y-64154478D01*
X89448073Y-63999019D01*
X89442375Y-63991176D01*
X88855000Y-64578551D01*
X88855000Y-64533263D01*
X88830807Y-64442975D01*
X88784070Y-64362025D01*
X88717975Y-64295930D01*
X88637025Y-64249193D01*
X88546737Y-64225000D01*
X88501447Y-64225000D01*
X89088822Y-63637623D01*
X89088822Y-63637622D01*
X89080980Y-63631925D01*
X88925521Y-63552713D01*
X88925513Y-63552710D01*
X88759575Y-63498795D01*
X88587240Y-63471500D01*
X88412760Y-63471500D01*
X88240424Y-63498795D01*
X88074486Y-63552710D01*
X88074478Y-63552713D01*
X87919024Y-63631923D01*
X87919007Y-63631933D01*
X87911175Y-63637622D01*
X87911175Y-63637623D01*
X88498554Y-64225000D01*
X88453263Y-64225000D01*
X88362975Y-64249193D01*
X88282025Y-64295930D01*
X88215930Y-64362025D01*
X88169193Y-64442975D01*
X88145000Y-64533263D01*
X88145000Y-64578552D01*
X87557623Y-63991175D01*
X87557622Y-63991175D01*
X87551933Y-63999007D01*
X87551923Y-63999024D01*
X87472713Y-64154478D01*
X87472710Y-64154486D01*
X87418795Y-64320424D01*
X87391500Y-64492759D01*
X50396465Y-64492759D01*
X50396652Y-63222721D01*
X84851000Y-63222721D01*
X84851000Y-63397278D01*
X84878308Y-63569692D01*
X84878308Y-63569695D01*
X84932249Y-63735706D01*
X84932249Y-63735707D01*
X84932250Y-63735708D01*
X85011498Y-63891243D01*
X85114102Y-64032465D01*
X85237535Y-64155898D01*
X85378757Y-64258502D01*
X85534292Y-64337750D01*
X85700309Y-64391692D01*
X85872720Y-64419000D01*
X85872721Y-64419000D01*
X86047279Y-64419000D01*
X86047280Y-64419000D01*
X86219691Y-64391692D01*
X86219694Y-64391691D01*
X86219695Y-64391691D01*
X86286589Y-64369956D01*
X86324352Y-64357685D01*
X86385708Y-64337750D01*
X86541243Y-64258502D01*
X86682465Y-64155898D01*
X86805898Y-64032465D01*
X86908502Y-63891243D01*
X86987750Y-63735708D01*
X87019620Y-63637622D01*
X87041691Y-63569695D01*
X87041691Y-63569694D01*
X87041692Y-63569691D01*
X87069000Y-63397280D01*
X87069000Y-63222720D01*
X87041692Y-63050309D01*
X87041691Y-63050305D01*
X87041691Y-63050304D01*
X86987750Y-62884293D01*
X86987750Y-62884292D01*
X86908502Y-62728757D01*
X86805898Y-62587535D01*
X86682465Y-62464102D01*
X86541243Y-62361498D01*
X86385708Y-62282250D01*
X86385707Y-62282249D01*
X86385706Y-62282249D01*
X86219693Y-62228308D01*
X86104750Y-62210102D01*
X86047280Y-62201000D01*
X85872720Y-62201000D01*
X85815249Y-62210102D01*
X85700307Y-62228308D01*
X85700304Y-62228308D01*
X85534293Y-62282249D01*
X85534292Y-62282249D01*
X85378760Y-62361496D01*
X85378752Y-62361501D01*
X85303006Y-62416534D01*
X85237535Y-62464102D01*
X85237533Y-62464104D01*
X85237532Y-62464104D01*
X85114104Y-62587532D01*
X85114104Y-62587533D01*
X85114102Y-62587535D01*
X85089615Y-62621239D01*
X85011501Y-62728752D01*
X85011496Y-62728760D01*
X84932249Y-62884292D01*
X84932249Y-62884293D01*
X84878308Y-63050304D01*
X84878308Y-63050307D01*
X84851000Y-63222721D01*
X50396652Y-63222721D01*
X50396840Y-61952720D01*
X87391000Y-61952720D01*
X87391000Y-62127280D01*
X87407002Y-62228308D01*
X87418308Y-62299692D01*
X87418308Y-62299695D01*
X87472249Y-62465706D01*
X87472249Y-62465707D01*
X87472250Y-62465708D01*
X87551498Y-62621243D01*
X87654102Y-62762465D01*
X87777535Y-62885898D01*
X87918757Y-62988502D01*
X88074292Y-63067750D01*
X88240309Y-63121692D01*
X88412720Y-63149000D01*
X88412721Y-63149000D01*
X88587279Y-63149000D01*
X88587280Y-63149000D01*
X88759691Y-63121692D01*
X88759694Y-63121691D01*
X88759695Y-63121691D01*
X88812089Y-63104666D01*
X88925708Y-63067750D01*
X89081243Y-62988502D01*
X89222465Y-62885898D01*
X89345898Y-62762465D01*
X89448502Y-62621243D01*
X89527750Y-62465708D01*
X89581692Y-62299691D01*
X89609000Y-62127280D01*
X89609000Y-61952720D01*
X89581692Y-61780309D01*
X89581691Y-61780305D01*
X89581691Y-61780304D01*
X89527750Y-61614293D01*
X89527750Y-61614292D01*
X89448502Y-61458757D01*
X89345898Y-61317535D01*
X89222465Y-61194102D01*
X89081243Y-61091498D01*
X88925708Y-61012250D01*
X88925707Y-61012249D01*
X88925706Y-61012249D01*
X88759693Y-60958308D01*
X88644750Y-60940102D01*
X88587280Y-60931000D01*
X88412720Y-60931000D01*
X88355249Y-60940102D01*
X88240307Y-60958308D01*
X88240304Y-60958308D01*
X88074293Y-61012249D01*
X88074292Y-61012249D01*
X87918760Y-61091496D01*
X87918752Y-61091501D01*
X87843006Y-61146534D01*
X87777535Y-61194102D01*
X87777533Y-61194104D01*
X87777532Y-61194104D01*
X87654104Y-61317532D01*
X87654104Y-61317533D01*
X87654102Y-61317535D01*
X87629615Y-61351239D01*
X87551501Y-61458752D01*
X87551496Y-61458760D01*
X87472249Y-61614292D01*
X87472249Y-61614293D01*
X87418308Y-61780304D01*
X87418308Y-61780307D01*
X87407002Y-61851691D01*
X87391000Y-61952720D01*
X50396840Y-61952720D01*
X50397027Y-60682720D01*
X84851000Y-60682720D01*
X84851000Y-60857280D01*
X84867002Y-60958308D01*
X84878308Y-61029692D01*
X84878308Y-61029695D01*
X84932249Y-61195706D01*
X84932249Y-61195707D01*
X84932250Y-61195708D01*
X85011498Y-61351243D01*
X85114102Y-61492465D01*
X85237535Y-61615898D01*
X85378757Y-61718502D01*
X85534292Y-61797750D01*
X85700309Y-61851692D01*
X85872720Y-61879000D01*
X85872721Y-61879000D01*
X86047279Y-61879000D01*
X86047280Y-61879000D01*
X86219691Y-61851692D01*
X86219694Y-61851691D01*
X86219695Y-61851691D01*
X86286709Y-61829917D01*
X86323851Y-61817848D01*
X86385708Y-61797750D01*
X86541243Y-61718502D01*
X86682465Y-61615898D01*
X86805898Y-61492465D01*
X86908502Y-61351243D01*
X86987750Y-61195708D01*
X87041692Y-61029691D01*
X87069000Y-60857280D01*
X87069000Y-60682720D01*
X87041692Y-60510309D01*
X87041691Y-60510305D01*
X87041691Y-60510304D01*
X86987750Y-60344293D01*
X86987750Y-60344292D01*
X86977430Y-60324038D01*
X86908502Y-60188757D01*
X86805898Y-60047535D01*
X86682465Y-59924102D01*
X86541243Y-59821498D01*
X86385708Y-59742250D01*
X86385707Y-59742249D01*
X86385706Y-59742249D01*
X86219693Y-59688308D01*
X86104750Y-59670102D01*
X86047280Y-59661000D01*
X85872720Y-59661000D01*
X85815249Y-59670102D01*
X85700307Y-59688308D01*
X85700304Y-59688308D01*
X85534293Y-59742249D01*
X85534292Y-59742249D01*
X85378760Y-59821496D01*
X85378752Y-59821501D01*
X85303006Y-59876534D01*
X85237535Y-59924102D01*
X85237533Y-59924104D01*
X85237532Y-59924104D01*
X85114104Y-60047532D01*
X85114104Y-60047533D01*
X85114102Y-60047535D01*
X85100489Y-60066272D01*
X85011501Y-60188752D01*
X85011496Y-60188760D01*
X84932249Y-60344292D01*
X84932249Y-60344293D01*
X84878308Y-60510304D01*
X84878308Y-60510307D01*
X84867002Y-60581691D01*
X84851000Y-60682720D01*
X50397027Y-60682720D01*
X50397190Y-59579640D01*
X74438500Y-59579640D01*
X74438500Y-59747183D01*
X74471182Y-59911486D01*
X74471184Y-59911494D01*
X74535295Y-60066272D01*
X74628373Y-60205574D01*
X74746837Y-60324038D01*
X74839494Y-60385949D01*
X74886137Y-60417115D01*
X75040918Y-60481228D01*
X75205228Y-60513911D01*
X75205232Y-60513912D01*
X75205233Y-60513912D01*
X75372768Y-60513912D01*
X75372769Y-60513911D01*
X75537082Y-60481228D01*
X75691863Y-60417115D01*
X75831162Y-60324038D01*
X75949626Y-60205574D01*
X76042703Y-60066275D01*
X76106816Y-59911494D01*
X76139500Y-59747179D01*
X76139500Y-59579645D01*
X76106816Y-59415330D01*
X76105735Y-59412720D01*
X87391000Y-59412720D01*
X87391000Y-59587280D01*
X87407002Y-59688308D01*
X87418308Y-59759692D01*
X87418308Y-59759695D01*
X87472249Y-59925706D01*
X87472249Y-59925707D01*
X87472250Y-59925708D01*
X87551498Y-60081243D01*
X87654102Y-60222465D01*
X87777535Y-60345898D01*
X87918757Y-60448502D01*
X88074292Y-60527750D01*
X88240309Y-60581692D01*
X88412720Y-60609000D01*
X88412721Y-60609000D01*
X88587279Y-60609000D01*
X88587280Y-60609000D01*
X88759691Y-60581692D01*
X88759694Y-60581691D01*
X88759695Y-60581691D01*
X88812089Y-60564666D01*
X88925708Y-60527750D01*
X89081243Y-60448502D01*
X89222465Y-60345898D01*
X89345898Y-60222465D01*
X89448502Y-60081243D01*
X89527750Y-59925708D01*
X89581692Y-59759691D01*
X89609000Y-59587280D01*
X89609000Y-59412720D01*
X89581692Y-59240309D01*
X89581691Y-59240305D01*
X89581691Y-59240304D01*
X89546208Y-59131101D01*
X89527750Y-59074292D01*
X89448502Y-58918757D01*
X89345898Y-58777535D01*
X89222465Y-58654102D01*
X89081243Y-58551498D01*
X88925708Y-58472250D01*
X88925707Y-58472249D01*
X88925706Y-58472249D01*
X88759693Y-58418308D01*
X88644750Y-58400102D01*
X88587280Y-58391000D01*
X88412720Y-58391000D01*
X88355249Y-58400102D01*
X88240307Y-58418308D01*
X88240304Y-58418308D01*
X88074293Y-58472249D01*
X88074292Y-58472249D01*
X87918760Y-58551496D01*
X87918752Y-58551501D01*
X87843006Y-58606534D01*
X87777535Y-58654102D01*
X87777533Y-58654104D01*
X87777532Y-58654104D01*
X87654104Y-58777532D01*
X87654104Y-58777533D01*
X87654102Y-58777535D01*
X87628399Y-58812912D01*
X87551501Y-58918752D01*
X87551496Y-58918760D01*
X87472249Y-59074292D01*
X87472249Y-59074293D01*
X87418308Y-59240304D01*
X87418308Y-59240307D01*
X87418308Y-59240309D01*
X87391000Y-59412720D01*
X76105735Y-59412720D01*
X76042703Y-59260549D01*
X76011537Y-59213906D01*
X75949626Y-59121249D01*
X75831162Y-59002785D01*
X75691860Y-58909707D01*
X75537082Y-58845596D01*
X75537074Y-58845594D01*
X75372771Y-58812912D01*
X75372767Y-58812912D01*
X75205233Y-58812912D01*
X75205228Y-58812912D01*
X75040925Y-58845594D01*
X75040917Y-58845596D01*
X74886139Y-58909707D01*
X74746837Y-59002785D01*
X74628373Y-59121249D01*
X74535295Y-59260551D01*
X74471184Y-59415329D01*
X74471182Y-59415337D01*
X74438500Y-59579640D01*
X50397190Y-59579640D01*
X50397591Y-56860092D01*
X59269500Y-56860092D01*
X59269500Y-57009907D01*
X59298723Y-57156822D01*
X59298725Y-57156830D01*
X59356051Y-57295229D01*
X59356056Y-57295238D01*
X59439280Y-57419790D01*
X59439283Y-57419794D01*
X59545205Y-57525716D01*
X59545209Y-57525719D01*
X59669761Y-57608943D01*
X59669767Y-57608946D01*
X59669768Y-57608947D01*
X59808170Y-57666275D01*
X59955092Y-57695499D01*
X59955096Y-57695500D01*
X59955097Y-57695500D01*
X60104904Y-57695500D01*
X60104905Y-57695499D01*
X60251830Y-57666275D01*
X60390232Y-57608947D01*
X60514791Y-57525719D01*
X60620719Y-57419791D01*
X60703947Y-57295232D01*
X60761275Y-57156830D01*
X60790500Y-57009903D01*
X60790500Y-56860097D01*
X60761275Y-56713170D01*
X60703947Y-56574768D01*
X60703946Y-56574767D01*
X60703943Y-56574761D01*
X60620719Y-56450209D01*
X60620716Y-56450205D01*
X60514794Y-56344283D01*
X60514790Y-56344280D01*
X60390238Y-56261056D01*
X60390229Y-56261051D01*
X60251830Y-56203725D01*
X60251822Y-56203723D01*
X60104907Y-56174500D01*
X60104903Y-56174500D01*
X59955097Y-56174500D01*
X59955092Y-56174500D01*
X59808177Y-56203723D01*
X59808169Y-56203725D01*
X59669770Y-56261051D01*
X59669761Y-56261056D01*
X59545209Y-56344280D01*
X59545205Y-56344283D01*
X59439283Y-56450205D01*
X59439280Y-56450209D01*
X59356056Y-56574761D01*
X59356051Y-56574770D01*
X59298725Y-56713169D01*
X59298723Y-56713177D01*
X59269500Y-56860092D01*
X50397591Y-56860092D01*
X50398628Y-49830693D01*
X84749500Y-49830693D01*
X84749500Y-50109306D01*
X84780692Y-50386141D01*
X84780694Y-50386153D01*
X84842689Y-50657775D01*
X84842692Y-50657783D01*
X84934707Y-50920745D01*
X85055586Y-51171752D01*
X85055588Y-51171755D01*
X85203814Y-51407656D01*
X85377521Y-51625477D01*
X85574523Y-51822479D01*
X85792344Y-51996186D01*
X86028245Y-52144412D01*
X86279258Y-52265294D01*
X86476756Y-52334401D01*
X86542216Y-52357307D01*
X86542224Y-52357310D01*
X86542227Y-52357310D01*
X86542228Y-52357311D01*
X86813846Y-52419306D01*
X87090694Y-52450499D01*
X87090695Y-52450500D01*
X87090698Y-52450500D01*
X87369305Y-52450500D01*
X87369305Y-52450499D01*
X87646154Y-52419306D01*
X87917772Y-52357311D01*
X88180742Y-52265294D01*
X88431755Y-52144412D01*
X88667656Y-51996186D01*
X88885477Y-51822479D01*
X89082479Y-51625477D01*
X89256186Y-51407656D01*
X89404412Y-51171755D01*
X89525294Y-50920742D01*
X89617311Y-50657772D01*
X89679306Y-50386154D01*
X89710500Y-50109302D01*
X89710500Y-49830698D01*
X89679306Y-49553846D01*
X89617311Y-49282228D01*
X89525294Y-49019258D01*
X89404412Y-48768245D01*
X89256186Y-48532344D01*
X89082479Y-48314523D01*
X88885477Y-48117521D01*
X88667656Y-47943814D01*
X88431755Y-47795588D01*
X88431752Y-47795586D01*
X88180745Y-47674707D01*
X87917783Y-47582692D01*
X87917775Y-47582689D01*
X87714058Y-47536192D01*
X87646154Y-47520694D01*
X87646150Y-47520693D01*
X87646141Y-47520692D01*
X87369306Y-47489500D01*
X87369302Y-47489500D01*
X87090698Y-47489500D01*
X87090693Y-47489500D01*
X86813858Y-47520692D01*
X86813846Y-47520694D01*
X86542224Y-47582689D01*
X86542216Y-47582692D01*
X86279254Y-47674707D01*
X86028247Y-47795586D01*
X85792345Y-47943813D01*
X85574523Y-48117520D01*
X85377520Y-48314523D01*
X85203813Y-48532345D01*
X85055586Y-48768247D01*
X84934707Y-49019254D01*
X84842692Y-49282216D01*
X84842689Y-49282224D01*
X84780694Y-49553846D01*
X84780692Y-49553858D01*
X84749500Y-49830693D01*
X50398628Y-49830693D01*
X50400464Y-37384102D01*
X50420158Y-37317068D01*
X50443763Y-37289977D01*
X50463684Y-37272902D01*
X55534500Y-37272902D01*
X55534500Y-37509097D01*
X55571446Y-37742368D01*
X55644433Y-37966996D01*
X55697049Y-38070259D01*
X55751657Y-38177433D01*
X55890483Y-38368510D01*
X56057490Y-38535517D01*
X56248567Y-38674343D01*
X56347991Y-38725002D01*
X56459003Y-38781566D01*
X56459005Y-38781566D01*
X56459008Y-38781568D01*
X56579412Y-38820689D01*
X56683631Y-38854553D01*
X56916903Y-38891500D01*
X56916908Y-38891500D01*
X57153097Y-38891500D01*
X57386368Y-38854553D01*
X57610992Y-38781568D01*
X57821433Y-38674343D01*
X58012510Y-38535517D01*
X58179517Y-38368510D01*
X58318343Y-38177433D01*
X58425568Y-37966992D01*
X58498553Y-37742368D01*
X58535500Y-37509097D01*
X58535500Y-37272905D01*
X58535499Y-37272899D01*
X58534994Y-37269711D01*
X68149500Y-37269711D01*
X68149500Y-37512288D01*
X68181161Y-37752785D01*
X68243947Y-37987104D01*
X68322784Y-38177433D01*
X68336776Y-38211212D01*
X68458064Y-38421289D01*
X68458066Y-38421292D01*
X68458067Y-38421293D01*
X68605733Y-38613736D01*
X68605739Y-38613743D01*
X68777256Y-38785260D01*
X68777262Y-38785265D01*
X68969711Y-38932936D01*
X69179788Y-39054224D01*
X69403900Y-39147054D01*
X69638211Y-39209838D01*
X69818586Y-39233584D01*
X69878711Y-39241500D01*
X69878712Y-39241500D01*
X70121289Y-39241500D01*
X70169388Y-39235167D01*
X70361789Y-39209838D01*
X70596100Y-39147054D01*
X70820212Y-39054224D01*
X71030289Y-38932936D01*
X71222738Y-38785265D01*
X71394265Y-38613738D01*
X71541936Y-38421289D01*
X71663224Y-38211212D01*
X71756054Y-37987100D01*
X71818838Y-37752789D01*
X71850500Y-37512288D01*
X71850500Y-37269712D01*
X71850500Y-37269711D01*
X88149500Y-37269711D01*
X88149500Y-37512288D01*
X88181161Y-37752785D01*
X88243947Y-37987104D01*
X88322784Y-38177433D01*
X88336776Y-38211212D01*
X88458064Y-38421289D01*
X88458066Y-38421292D01*
X88458067Y-38421293D01*
X88605733Y-38613736D01*
X88605739Y-38613743D01*
X88777256Y-38785260D01*
X88777262Y-38785265D01*
X88969711Y-38932936D01*
X89179788Y-39054224D01*
X89403900Y-39147054D01*
X89638211Y-39209838D01*
X89818586Y-39233584D01*
X89878711Y-39241500D01*
X89878712Y-39241500D01*
X90121289Y-39241500D01*
X90169388Y-39235167D01*
X90361789Y-39209838D01*
X90596100Y-39147054D01*
X90820212Y-39054224D01*
X91030289Y-38932936D01*
X91222738Y-38785265D01*
X91394265Y-38613738D01*
X91541936Y-38421289D01*
X91663224Y-38211212D01*
X91756054Y-37987100D01*
X91818838Y-37752789D01*
X91850500Y-37512288D01*
X91850500Y-37269712D01*
X91818838Y-37029211D01*
X91756054Y-36794900D01*
X91663224Y-36570788D01*
X91541936Y-36360711D01*
X91481018Y-36281321D01*
X91394266Y-36168263D01*
X91394260Y-36168256D01*
X91222743Y-35996739D01*
X91222736Y-35996733D01*
X91030293Y-35849067D01*
X91030292Y-35849066D01*
X91030289Y-35849064D01*
X90820212Y-35727776D01*
X90820205Y-35727773D01*
X90596104Y-35634947D01*
X90361785Y-35572161D01*
X90121289Y-35540500D01*
X90121288Y-35540500D01*
X89878712Y-35540500D01*
X89878711Y-35540500D01*
X89638214Y-35572161D01*
X89403895Y-35634947D01*
X89179794Y-35727773D01*
X89179785Y-35727777D01*
X88969706Y-35849067D01*
X88777263Y-35996733D01*
X88777256Y-35996739D01*
X88605739Y-36168256D01*
X88605733Y-36168263D01*
X88458067Y-36360706D01*
X88336777Y-36570785D01*
X88336773Y-36570794D01*
X88243947Y-36794895D01*
X88181161Y-37029214D01*
X88149500Y-37269711D01*
X71850500Y-37269711D01*
X71818838Y-37029211D01*
X71756054Y-36794900D01*
X71663224Y-36570788D01*
X71541936Y-36360711D01*
X71481018Y-36281321D01*
X71394266Y-36168263D01*
X71394260Y-36168256D01*
X71222743Y-35996739D01*
X71222736Y-35996733D01*
X71030293Y-35849067D01*
X71030292Y-35849066D01*
X71030289Y-35849064D01*
X70820212Y-35727776D01*
X70820205Y-35727773D01*
X70596104Y-35634947D01*
X70361785Y-35572161D01*
X70121289Y-35540500D01*
X70121288Y-35540500D01*
X69878712Y-35540500D01*
X69878711Y-35540500D01*
X69638214Y-35572161D01*
X69403895Y-35634947D01*
X69179794Y-35727773D01*
X69179785Y-35727777D01*
X68969706Y-35849067D01*
X68777263Y-35996733D01*
X68777256Y-35996739D01*
X68605739Y-36168256D01*
X68605733Y-36168263D01*
X68458067Y-36360706D01*
X68336777Y-36570785D01*
X68336773Y-36570794D01*
X68243947Y-36794895D01*
X68181161Y-37029214D01*
X68149500Y-37269711D01*
X58534994Y-37269711D01*
X58498553Y-37039631D01*
X58444440Y-36873089D01*
X58425568Y-36815008D01*
X58425566Y-36815005D01*
X58425566Y-36815003D01*
X58318342Y-36604566D01*
X58293801Y-36570788D01*
X58179517Y-36413490D01*
X58012510Y-36246483D01*
X57821433Y-36107657D01*
X57610996Y-36000433D01*
X57386368Y-35927446D01*
X57153097Y-35890500D01*
X57153092Y-35890500D01*
X56916908Y-35890500D01*
X56916903Y-35890500D01*
X56683631Y-35927446D01*
X56459003Y-36000433D01*
X56248566Y-36107657D01*
X56165150Y-36168263D01*
X56057490Y-36246483D01*
X56057488Y-36246485D01*
X56057487Y-36246485D01*
X55890485Y-36413487D01*
X55890485Y-36413488D01*
X55890483Y-36413490D01*
X55830862Y-36495550D01*
X55751657Y-36604566D01*
X55644433Y-36815003D01*
X55571446Y-37039631D01*
X55534500Y-37272902D01*
X50463684Y-37272902D01*
X54669087Y-33668271D01*
X56696661Y-31930352D01*
X56760372Y-31901669D01*
X56777359Y-31900500D01*
X91612751Y-31900500D01*
X91679790Y-31920185D01*
G37*
%TD.AperFunction*%
%TD*%
M02*
