M48
; DRILL file KiCad 10.0.5 date 2026-08-24T11:06:58
; FORMAT={-:-/ absolute / metric / decimal}
; #@! TF.CreationDate,2026-08-24T11:06:58+02:00
; #@! TF.GenerationSoftware,Kicad,Pcbnew,10.0.5
; #@! TF.FileFunction,Plated,1,4,PTH
FMAT,2
METRIC
; #@! TA.AperFunction,Plated,PTH,ViaDrill
T1C0.300
; #@! TA.AperFunction,Plated,PTH,ViaDrill
T2C0.350
; #@! TA.AperFunction,Plated,PTH,ComponentDrill
T3C0.710
; #@! TA.AperFunction,Plated,PTH,ComponentDrill
T4C2.640
%
G90
G05
T1
X52.0Y-70.0
X52.5Y-55.0
X52.5Y-62.5
X56.0Y-75.0
X59.188Y-66.109
X60.0Y-55.0
X62.666Y-77.168
X65.274Y-67.449
X66.5Y-57.5
X67.5Y-69.175
X67.511Y-78.653
X69.0Y-67.675
X70.5Y-57.5
X72.0Y-74.675
X74.154Y-65.836
X78.023Y-57.278
X79.5Y-74.675
X80.0Y-66.175
X85.835Y-57.548
X87.0Y-74.675
X90.919Y-65.914
X90.997Y-62.983
X91.086Y-57.781
T2
X52.0Y-72.175
X65.5Y-65.675
X65.5Y-73.327
X71.5Y-65.675
X75.289Y-59.663
T3
X85.96Y-60.77
X85.96Y-63.31
X85.96Y-65.85
X85.96Y-68.39
X88.5Y-59.5
X88.5Y-62.04
X88.5Y-64.58
X88.5Y-67.12
X88.5Y-69.66
T4
X87.23Y-49.97
X87.23Y-79.19
M30
